# xmcd CD database file
#
# Track frame offsets:
#	150
#	19431
#	30016
#	47643
#	64369
#	83490
#	101177
#	115670
#	133220
#	149792
#	166209
#	192937
#	224632
#	247043
#	268644
#	290979
#	313045
#	336992
#
# Disc length: 4802 seconds
#
# Revision: 0
# Processed by: cddbd v1.5.2PL0 Copyright (c) Steve Scherf et al.
# Submitted via: CDex 1.51
#
DISCID=2012c012
DTITLE=Sam Most - Four Classic Albums - CD 1
DYEAR=2017
DGENRE=Jazz
TTITLE0=Cherokee
TTITLE1=Don't Worry 'Bout Me
TTITLE2=What A Difference A Day Made
TTITLE3=How Deep Is The Ocean
TTITLE4=Falling In Love With Love
TTITLE5=Rose Room
TTITLE6=Smiles
TTITLE7=Broadway
TTITLE8=Tea For Two
TTITLE9='Deed I Do
TTITLE10=Stella By Starlight
TTITLE11=Hush-A-Bye
TTITLE12=Obvious Conclusion
TTITLE13=Autumn Leaves
TTITLE14=If I Had You
TTITLE15=Body And Soul
TTITLE16=House Of Bread Blues
TTITLE17=Two For Three
EXTD=YEAR: 2017
EXTT0=
EXTT1=
EXTT2=
EXTT3=
EXTT4=
EXTT5=
EXTT6=
EXTT7=
EXTT8=
EXTT9=
EXTT10=
EXTT11=
EXTT12=
EXTT13=
EXTT14=
EXTT15=
EXTT16=
EXTT17=
PLAYORDER=
